Coordinates
version=1
nRows=21
nColumns=12
inDegrees=yes

Units are S.I. units (second, meters, Newtons, ...)
Angles are in degrees

endheader
time	SC_y	SC_z	SC_x	AC_y	AC_z	AC_x	GH_y	GH_z	GH_yy	EL_x	PS_y
       0.0              -21.81         0.8049           74.6          44.61          6.916         -16.54         -171.1          57.98          64.11          77.01          70.83
   0.02205              -21.81         0.8047           74.6          44.61          6.912         -16.53         -171.1          57.98          64.11          77.01          70.82
    0.0441              -21.81         0.8045          74.59          44.61          6.908         -16.53         -171.1          57.98          64.11          77.02          70.81
   0.06615              -21.82         0.8043          74.59          44.61          6.904         -16.53         -171.0          57.98           64.1          77.02           70.8
    0.0882              -21.82         0.8041          74.58          44.61          6.899         -16.52         -171.0          57.98           64.1          77.03           70.8
    0.1102              -21.83         0.8038          74.57          44.62          6.894         -16.52         -171.0          57.98           64.1          77.03          70.79
    0.1323              -21.83         0.8036          74.57          44.62          6.889         -16.51         -171.0          57.98           64.1          77.03          70.78
    0.1543              -21.84         0.8033          74.56          44.62          6.883         -16.51         -170.9          57.98           64.1          77.04          70.77
    0.1764              -21.84          0.803          74.55          44.62          6.877          -16.5         -170.9          57.97          64.09          77.04          70.76
    0.1984              -21.85         0.8027          74.55          44.62           6.87          -16.5         -170.9          57.97          64.09          77.05          70.75
    0.2205              -21.85         0.8023          74.54          44.62          6.863         -16.49         -170.8          57.97          64.09          77.06          70.74
    0.2425              -21.86          0.802          74.53          44.62          6.855         -16.48         -170.8          57.97          64.09          77.06          70.72
    0.2646              -21.87         0.8016          74.52          44.62          6.847         -16.48         -170.8          57.97          64.08          77.07          70.71
    0.2866              -21.88         0.8011          74.51          44.62          6.838         -16.47         -170.7          57.97          64.08          77.08           70.7
    0.3087              -21.88         0.8007           74.5          44.62          6.829         -16.46         -170.7          57.96          64.08          77.08          70.68
    0.3307              -21.89         0.8002          74.49          44.62          6.818         -16.45         -170.6          57.96          64.07          77.09          70.66
    0.3528               -21.9         0.7996          74.47          44.62          6.807         -16.44         -170.6          57.96          64.07           77.1          70.64
    0.3748              -21.91          0.799          74.46          44.62          6.795         -16.43         -170.5          57.95          64.07          77.11          70.62
    0.3969              -21.93         0.7984          74.45          44.63          6.781         -16.42         -170.4          57.95          64.06          77.12           70.6
    0.4189              -21.94         0.7976          74.43          44.63          6.767          -16.4         -170.4          57.95          64.06          77.14          70.58
     0.441              -21.95         0.7969          74.41          44.63          6.751         -16.39         -170.3          57.94          64.05          77.15          70.55
